999
"DXF R12 Output" (www.mydxf.blogspot.com)
 0 
SECTION
 2 
HEADER
 9 
$ACADVER
 1 
AC1009
 9 
$EXTMIN
 10 
 0 
 20 
 0 
 9 
$EXTMAX
 10 
 8.5 
 20 
 11 
 0 
ENDSEC
 0 
SECTION
 2 
ENTITIES
0
LINE
8
Layer 1
10
37.835369
20
68.262064
11
33.628434
21
66.543377
0
LINE
8
Layer 1
10
33.628434
20
66.543377
11
29.597592
21
64.341946
0
LINE
8
Layer 1
10
29.597592
20
64.341946
11
27.702195
21
63.046993
0
LINE
8
Layer 1
10
27.702195
20
63.046993
11
25.915609
21
61.615504
0
LINE
8
Layer 1
10
25.915609
20
61.615504
11
24.259430
21
60.042196
0
LINE
8
Layer 1
10
24.259430
20
60.042196
11
22.755252
21
58.321784
0
LINE
8
Layer 1
10
22.755252
20
58.321784
11
21.424672
21
56.448985
0
LINE
8
Layer 1
10
21.424672
20
56.448985
11
20.289286
21
54.418517
0
LINE
8
Layer 1
10
20.289286
20
54.418517
11
19.370689
21
52.225096
0
LINE
8
Layer 1
10
19.370689
20
52.225096
11
18.690477
21
49.863437
0
LINE
8
Layer 1
10
18.690477
20
49.863437
11
18.270246
21
47.328259
0
LINE
8
Layer 1
10
18.270246
20
47.328259
11
18.131591
21
44.614277
0
LINE
8
Layer 1
10
18.131591
20
44.614277
11
18.296108
21
41.716208
0
LINE
8
Layer 1
10
18.296108
20
41.716208
11
18.785393
21
38.628768
0
LINE
8
Layer 1
10
18.785393
20
38.628768
11
19.215178
21
37.739072
0
LINE
8
Layer 1
10
19.215178
20
37.739072
11
19.982967
21
36.691768
0
LINE
8
Layer 1
10
19.982967
20
36.691768
11
22.397832
21
34.223146
0
LINE
8
Layer 1
10
22.397832
20
34.223146
11
25.760526
21
31.420523
0
LINE
8
Layer 1
10
25.760526
20
31.420523
11
29.801591
21
28.481524
0
LINE
8
Layer 1
10
29.801591
20
28.481524
11
34.251567
21
25.603770
0
LINE
8
Layer 1
10
34.251567
20
25.603770
11
38.840993
21
22.984884
0
LINE
8
Layer 1
10
38.840993
20
22.984884
11
43.300410
21
20.822490
0
LINE
8
Layer 1
10
43.300410
20
20.822490
11
47.360357
21
19.314209
0
LINE
8
Layer 1
10
47.360357
20
19.314209
11
49.568913
21
19.065967
0
LINE
8
Layer 1
10
49.568913
20
19.065967
11
51.742250
21
19.088140
0
LINE
8
Layer 1
10
51.742250
20
19.088140
11
53.870644
21
19.361532
0
LINE
8
Layer 1
10
53.870644
20
19.361532
11
55.944368
21
19.866943
0
LINE
8
Layer 1
10
55.944368
20
19.866943
11
57.953698
21
20.585175
0
LINE
8
Layer 1
10
57.953698
20
20.585175
11
59.888909
21
21.497031
0
LINE
8
Layer 1
10
59.888909
20
21.497031
11
61.740275
21
22.583311
0
LINE
8
Layer 1
10
61.740275
20
22.583311
11
63.498071
21
23.824819
0
LINE
8
Layer 1
10
63.498071
20
23.824819
11
65.152572
21
25.202356
0
LINE
8
Layer 1
10
65.152572
20
25.202356
11
66.694054
21
26.696723
0
LINE
8
Layer 1
10
66.694054
20
26.696723
11
68.112790
21
28.288722
0
LINE
8
Layer 1
10
68.112790
20
28.288722
11
69.399055
21
29.959156
0
LINE
8
Layer 1
10
69.399055
20
29.959156
11
70.543125
21
31.688826
0
LINE
8
Layer 1
10
70.543125
20
31.688826
11
71.535274
21
33.458533
0
LINE
8
Layer 1
10
71.535274
20
33.458533
11
72.365776
21
35.249081
0
LINE
8
Layer 1
10
72.365776
20
35.249081
11
73.024908
21
37.041270
0
LINE
8
Layer 1
10
73.024908
20
37.041270
11
75.724443
21
36.512311
0
LINE
8
Layer 1
10
75.724443
20
36.512311
11
78.381723
21
36.254325
0
LINE
8
Layer 1
10
78.381723
20
36.254325
11
80.967679
21
36.235739
0
LINE
8
Layer 1
10
80.967679
20
36.235739
11
83.453247
21
36.424981
0
LINE
8
Layer 1
10
83.453247
20
36.424981
11
85.809360
21
36.790478
0
LINE
8
Layer 1
10
85.809360
20
36.790478
11
88.006951
21
37.300656
0
LINE
8
Layer 1
10
88.006951
20
37.300656
11
90.016953
21
37.923944
0
LINE
8
Layer 1
10
90.016953
20
37.923944
11
91.810301
21
38.628768
0
LINE
8
Layer 1
10
91.810301
20
38.628768
11
93.609378
21
39.660680
0
LINE
8
Layer 1
10
93.609378
20
39.660680
11
95.785010
21
41.412971
0
LINE
8
Layer 1
10
95.785010
20
41.412971
11
98.071447
21
43.874129
0
LINE
8
Layer 1
10
98.071447
20
43.874129
11
99.173170
21
45.366935
0
LINE
8
Layer 1
10
99.173170
20
45.366935
11
100.202939
21
47.032641
0
LINE
8
Layer 1
10
100.202939
20
47.032641
11
101.127533
21
48.869808
0
LINE
8
Layer 1
10
101.127533
20
48.869808
11
101.913735
21
50.876995
0
LINE
8
Layer 1
10
101.913735
20
50.876995
11
102.528326
21
53.052765
0
LINE
8
Layer 1
10
102.528326
20
53.052765
11
102.938087
21
55.395679
0
LINE
8
Layer 1
10
102.938087
20
55.395679
11
103.109799
21
57.904296
0
LINE
8
Layer 1
10
103.109799
20
57.904296
11
103.010244
21
60.577179
0
LINE
8
Layer 1
10
103.010244
20
60.577179
11
102.606202
21
63.412887
0
LINE
8
Layer 1
10
102.606202
20
63.412887
11
101.864455
21
66.409983
0
LINE
8
Layer 1
10
101.864455
20
66.409983
11
101.068562
21
67.975691
0
LINE
8
Layer 1
10
101.068562
20
67.975691
11
100.143466
21
69.267826
0
LINE
8
Layer 1
10
100.143466
20
69.267826
11
99.114080
21
70.310197
0
LINE
8
Layer 1
10
99.114080
20
70.310197
11
98.005316
21
71.126616
0
LINE
8
Layer 1
10
98.005316
20
71.126616
11
96.842087
21
71.740892
0
LINE
8
Layer 1
10
96.842087
20
71.740892
11
95.649306
21
72.176836
0
LINE
8
Layer 1
10
95.649306
20
72.176836
11
93.274741
21
72.608967
0
LINE
8
Layer 1
10
93.274741
20
72.608967
11
91.080922
21
72.613490
0
LINE
8
Layer 1
10
91.080922
20
72.613490
11
89.267152
21
72.380886
0
LINE
8
Layer 1
10
89.267152
20
72.380886
11
87.576973
21
71.966226
0
LINE
8
Layer 1
10
87.576973
20
71.966226
11
87.876670
21
73.618462
0
LINE
8
Layer 1
10
87.876670
20
73.618462
11
88.039687
21
75.479646
0
LINE
8
Layer 1
10
88.039687
20
75.479646
11
88.023388
21
77.849443
0
LINE
8
Layer 1
10
88.023388
20
77.849443
11
87.686705
21
80.591779
0
LINE
8
Layer 1
10
87.686705
20
80.591779
11
86.888567
21
83.570581
0
LINE
8
Layer 1
10
86.888567
20
83.570581
11
86.272367
21
85.106134
0
LINE
8
Layer 1
10
86.272367
20
85.106134
11
85.487903
21
86.649775
0
LINE
8
Layer 1
10
85.487903
20
86.649775
11
84.517540
21
88.184496
0
LINE
8
Layer 1
10
84.517540
20
88.184496
11
83.343645
21
89.693287
0
LINE
8
Layer 1
10
83.343645
20
89.693287
11
80.854330
21
91.351347
0
LINE
8
Layer 1
10
80.854330
20
91.351347
11
77.464300
21
93.200481
0
LINE
8
Layer 1
10
77.464300
20
93.200481
11
73.379492
21
95.120899
0
LINE
8
Layer 1
10
73.379492
20
95.120899
11
68.805844
21
96.992808
0
LINE
8
Layer 1
10
68.805844
20
96.992808
11
63.949293
21
98.696417
0
LINE
8
Layer 1
10
63.949293
20
98.696417
11
59.015777
21
100.111933
0
LINE
8
Layer 1
10
59.015777
20
100.111933
11
54.211235
21
101.119565
0
LINE
8
Layer 1
10
54.211235
20
101.119565
11
49.741604
21
101.599522
0
LINE
8
Layer 1
10
49.741604
20
101.599522
11
47.505586
21
101.465947
0
LINE
8
Layer 1
10
47.505586
20
101.465947
11
45.197714
21
100.917897
0
LINE
8
Layer 1
10
45.197714
20
100.917897
11
42.876012
21
99.988473
0
LINE
8
Layer 1
10
42.876012
20
99.988473
11
40.598501
21
98.710776
0
LINE
8
Layer 1
10
40.598501
20
98.710776
11
38.423203
21
97.117908
0
LINE
8
Layer 1
10
38.423203
20
97.117908
11
36.408141
21
95.242970
0
LINE
8
Layer 1
10
36.408141
20
95.242970
11
34.611337
21
93.119063
0
LINE
8
Layer 1
10
34.611337
20
93.119063
11
33.090812
21
90.779290
0
LINE
8
Layer 1
10
33.090812
20
90.779290
11
31.904590
21
88.256751
0
LINE
8
Layer 1
10
31.904590
20
88.256751
11
31.110693
21
85.584548
0
LINE
8
Layer 1
10
31.110693
20
85.584548
11
30.767143
21
82.795783
0
LINE
8
Layer 1
10
30.767143
20
82.795783
11
30.931961
21
79.923556
0
LINE
8
Layer 1
10
30.931961
20
79.923556
11
31.663171
21
77.000969
0
LINE
8
Layer 1
10
31.663171
20
77.000969
11
32.259304
21
75.531135
0
LINE
8
Layer 1
10
32.259304
20
75.531135
11
33.018794
21
74.061124
0
LINE
8
Layer 1
10
33.018794
20
74.061124
11
33.948892
21
72.595074
0
LINE
8
Layer 1
10
33.948892
20
72.595074
11
35.056852
21
71.137122
0
LINE
8
Layer 1
10
35.056852
20
71.137122
11
36.349927
21
69.691406
0
LINE
8
Layer 1
10
36.349927
20
69.691406
11
37.835369
21
68.262064
0
LINE
8
Layer 1
10
37.835369
20
68.262064
11
37.835369
21
68.262064
0
LINE
8
Layer 1
10
0.793749
20
0.793399
11
118.268601
21
0.793399
0
LINE
8
Layer 1
10
118.268601
20
0.793399
11
118.268601
21
118.268251
0
LINE
8
Layer 1
10
118.268601
20
118.268251
11
0.793749
21
118.268251
0
LINE
8
Layer 1
10
0.793749
20
118.268251
11
0.793749
21
0.793399
 0 
ENDSEC
 0 
EOF