999
"DXF R12 Output" (www.mydxf.blogspot.com)
 0 
SECTION
 2 
HEADER
 9 
$ACADVER
 1 
AC1009
 9 
$EXTMIN
 10 
 0 
 20 
 0 
 9 
$EXTMAX
 10 
 8.5 
 20 
 11 
 0 
ENDSEC
 0 
SECTION
 2 
ENTITIES
0
LINE
8
Layer 1
10
22.489555
20
81.491214
11
29.633296
21
60.059991
0
LINE
8
Layer 1
10
29.633296
20
60.059991
11
28.327175
21
60.215705
0
LINE
8
Layer 1
10
28.327175
20
60.215705
11
26.973479
21
60.159719
0
LINE
8
Layer 1
10
26.973479
20
60.159719
11
25.400654
21
59.791722
0
LINE
8
Layer 1
10
25.400654
20
59.791722
11
23.794671
21
58.944630
0
LINE
8
Layer 1
10
23.794671
20
58.944630
11
23.037360
21
58.289208
0
LINE
8
Layer 1
10
23.037360
20
58.289208
11
22.341499
21
57.451355
0
LINE
8
Layer 1
10
22.341499
20
57.451355
11
21.730334
21
56.410186
0
LINE
8
Layer 1
10
21.730334
20
56.410186
11
21.227110
21
55.144813
0
LINE
8
Layer 1
10
21.227110
20
55.144813
11
20.855075
21
53.634353
0
LINE
8
Layer 1
10
20.855075
20
53.634353
11
20.637474
21
51.857918
0
LINE
8
Layer 1
10
20.637474
20
51.857918
11
20.831433
21
50.364426
0
LINE
8
Layer 1
10
20.831433
20
50.364426
11
21.142577
21
49.125891
0
LINE
8
Layer 1
10
21.142577
20
49.125891
11
21.553010
21
48.120430
0
LINE
8
Layer 1
10
21.553010
20
48.120430
11
22.044835
21
47.326157
0
LINE
8
Layer 1
10
22.044835
20
47.326157
11
22.600158
21
46.721189
0
LINE
8
Layer 1
10
22.600158
20
46.721189
11
23.201081
21
46.283640
0
LINE
8
Layer 1
10
23.201081
20
46.283640
11
24.468146
21
45.823265
0
LINE
8
Layer 1
10
24.468146
20
45.823265
11
25.702861
21
45.769956
0
LINE
8
Layer 1
10
25.702861
20
45.769956
11
26.762056
21
45.948639
0
LINE
8
Layer 1
10
26.762056
20
45.948639
11
27.781215
21
46.301675
0
LINE
8
Layer 1
10
27.781215
20
46.301675
11
41.274948
21
31.749610
0
LINE
8
Layer 1
10
41.274948
20
31.749610
11
43.920778
21
32.543359
0
LINE
8
Layer 1
10
43.920778
20
32.543359
11
44.072567
21
31.189272
0
LINE
8
Layer 1
10
44.072567
20
31.189272
11
44.372814
21
29.824611
0
LINE
8
Layer 1
10
44.372814
20
29.824611
11
44.920861
21
28.293050
0
LINE
8
Layer 1
10
44.920861
20
28.293050
11
45.790381
21
26.813221
0
LINE
8
Layer 1
10
45.790381
20
26.813221
11
46.368717
21
26.161029
0
LINE
8
Layer 1
10
46.368717
20
26.161029
11
47.055049
21
25.603757
0
LINE
8
Layer 1
10
47.055049
20
25.603757
11
47.858585
21
25.168734
0
LINE
8
Layer 1
10
47.858585
20
25.168734
11
48.788537
21
24.883289
0
LINE
8
Layer 1
10
48.788537
20
24.883289
11
49.854111
21
24.774752
0
LINE
8
Layer 1
10
49.854111
20
24.774752
11
51.064519
21
24.870452
0
LINE
8
Layer 1
10
51.064519
20
24.870452
11
52.300359
21
25.143343
0
LINE
8
Layer 1
10
52.300359
20
25.143343
11
53.436827
21
25.539801
0
LINE
8
Layer 1
10
53.436827
20
25.539801
11
55.416061
21
26.653250
0
LINE
8
Layer 1
10
55.416061
20
26.653250
11
57.011046
21
28.110462
0
LINE
8
Layer 1
10
57.011046
20
28.110462
11
58.230610
21
29.811104
0
LINE
8
Layer 1
10
58.230610
20
29.811104
11
59.083578
21
31.654841
0
LINE
8
Layer 1
10
59.083578
20
31.654841
11
59.578778
21
33.541337
0
LINE
8
Layer 1
10
59.578778
20
33.541337
11
59.725035
21
35.370258
0
LINE
8
Layer 1
10
59.725035
20
35.370258
11
59.531175
21
37.041270
0
LINE
8
Layer 1
10
59.531175
20
37.041270
11
66.692694
21
40.088933
0
LINE
8
Layer 1
10
66.692694
20
40.088933
11
74.591461
21
43.285426
0
LINE
8
Layer 1
10
74.591461
20
43.285426
11
83.608228
21
46.830841
0
LINE
8
Layer 1
10
83.608228
20
46.830841
11
83.727813
21
45.557430
0
LINE
8
Layer 1
10
83.727813
20
45.557430
11
83.987480
21
44.288167
0
LINE
8
Layer 1
10
83.987480
20
44.288167
11
84.478337
21
42.883865
0
LINE
8
Layer 1
10
84.478337
20
42.883865
11
85.273841
21
41.559523
0
LINE
8
Layer 1
10
85.273841
20
41.559523
11
85.808792
21
40.994526
0
LINE
8
Layer 1
10
85.808792
20
40.994526
11
86.447450
21
40.530143
0
LINE
8
Layer 1
10
86.447450
20
40.530143
11
87.198998
21
40.193251
0
LINE
8
Layer 1
10
87.198998
20
40.193251
11
88.072618
21
40.010724
0
LINE
8
Layer 1
10
88.072618
20
40.010724
11
89.077492
21
40.009438
0
LINE
8
Layer 1
10
89.077492
20
40.009438
11
90.222803
21
40.216266
0
LINE
8
Layer 1
10
90.222803
20
40.216266
11
92.476647
21
41.048705
0
LINE
8
Layer 1
10
92.476647
20
41.048705
11
94.370097
21
42.231290
0
LINE
8
Layer 1
10
94.370097
20
42.231290
11
95.912561
21
43.710987
0
LINE
8
Layer 1
10
95.912561
20
43.710987
11
97.113451
21
45.434764
0
LINE
8
Layer 1
10
97.113451
20
45.434764
11
97.982175
21
47.349586
0
LINE
8
Layer 1
10
97.982175
20
47.349586
11
98.528145
21
49.402422
0
LINE
8
Layer 1
10
98.528145
20
49.402422
11
98.760769
21
51.540237
0
LINE
8
Layer 1
10
98.760769
20
51.540237
11
98.689459
21
53.709999
0
LINE
8
Layer 1
10
98.689459
20
53.709999
11
100.599272
21
54.453117
0
LINE
8
Layer 1
10
100.599272
20
54.453117
11
101.070706
21
54.768331
0
LINE
8
Layer 1
10
101.070706
20
54.768331
11
101.070706
21
60.059991
0
LINE
8
Layer 1
10
101.070706
20
60.059991
11
94.456131
21
65.616234
0
LINE
8
Layer 1
10
94.456131
20
65.616234
11
97.895710
21
82.020380
0
LINE
8
Layer 1
10
97.895710
20
82.020380
11
92.604050
21
85.724542
0
LINE
8
Layer 1
10
92.604050
20
85.724542
11
90.643116
21
87.815313
0
LINE
8
Layer 1
10
90.643116
20
87.815313
11
88.362992
21
89.948595
0
LINE
8
Layer 1
10
88.362992
20
89.948595
11
85.368470
21
92.380313
0
LINE
8
Layer 1
10
85.368470
20
92.380313
11
81.773580
21
94.790344
0
LINE
8
Layer 1
10
81.773580
20
94.790344
11
79.786632
21
95.887190
0
LINE
8
Layer 1
10
79.786632
20
95.887190
11
77.692352
21
96.858569
0
LINE
8
Layer 1
10
77.692352
20
96.858569
11
75.504995
21
97.664465
0
LINE
8
Layer 1
10
75.504995
20
97.664465
11
73.238814
21
98.264864
0
LINE
8
Layer 1
10
73.238814
20
98.264864
11
70.908064
21
98.619750
0
LINE
8
Layer 1
10
70.908064
20
98.619750
11
68.526997
21
98.689109
0
LINE
8
Layer 1
10
68.526997
20
98.689109
11
64.883770
21
98.461984
0
LINE
8
Layer 1
10
64.883770
20
98.461984
11
61.666200
21
98.076215
0
LINE
8
Layer 1
10
61.666200
20
98.076215
11
58.775597
21
97.553802
0
LINE
8
Layer 1
10
58.775597
20
97.553802
11
56.113268
21
96.916743
0
LINE
8
Layer 1
10
56.113268
20
96.916743
11
51.078665
21
95.386685
0
LINE
8
Layer 1
10
51.078665
20
95.386685
11
45.772859
21
93.662032
0
LINE
8
Layer 1
10
45.772859
20
93.662032
11
42.110673
21
92.567107
0
LINE
8
Layer 1
10
42.110673
20
92.567107
11
40.404183
21
91.950849
0
LINE
8
Layer 1
10
40.404183
20
91.950849
11
38.761627
21
91.162729
0
LINE
8
Layer 1
10
38.761627
20
91.162729
11
37.168654
21
90.108246
0
LINE
8
Layer 1
10
37.168654
20
90.108246
11
35.610910
21
88.692901
0
LINE
8
Layer 1
10
35.610910
20
88.692901
11
34.074046
21
86.822195
0
LINE
8
Layer 1
10
34.074046
20
86.822195
11
32.543709
21
84.401627
0
LINE
8
Layer 1
10
32.543709
20
84.401627
11
25.790092
21
82.529707
0
LINE
8
Layer 1
10
25.790092
20
82.529707
11
22.489555
21
81.491214
0
LINE
8
Layer 1
10
22.489555
20
81.491214
11
22.489555
21
81.491214
0
LINE
8
Layer 1
10
0.793749
20
0.793399
11
118.268601
21
0.793399
0
LINE
8
Layer 1
10
118.268601
20
0.793399
11
118.268601
21
118.268251
0
LINE
8
Layer 1
10
118.268601
20
118.268251
11
0.793749
21
118.268251
0
LINE
8
Layer 1
10
0.793749
20
118.268251
11
0.793749
21
0.793399
 0 
ENDSEC
 0 
EOF