999
"DXF R12 Output" (www.mydxf.blogspot.com)
 0 
SECTION
 2 
HEADER
 9 
$ACADVER
 1 
AC1009
 9 
$EXTMIN
 10 
 0 
 20 
 0 
 9 
$EXTMAX
 10 
 8.5 
 20 
 11 
 0 
ENDSEC
 0 
SECTION
 2 
ENTITIES
0
LINE
8
Layer 1
10
0.793749
20
0.793399
11
118.268601
21
0.793399
0
LINE
8
Layer 1
10
118.268601
20
0.793399
11
118.268601
21
118.268251
0
LINE
8
Layer 1
10
118.268601
20
118.268251
11
0.793749
21
118.268251
0
LINE
8
Layer 1
10
0.793749
20
118.268251
11
0.793749
21
0.793399
0
LINE
8
Layer 1
10
56.161165
20
99.495293
11
25.929134
21
79.639133
0
LINE
8
Layer 1
10
25.929134
20
79.639133
11
25.399968
21
74.347473
0
LINE
8
Layer 1
10
25.399968
20
74.347473
11
29.368713
21
73.024558
0
LINE
8
Layer 1
10
29.368713
20
73.024558
11
29.104130
21
69.055813
0
LINE
8
Layer 1
10
29.104130
20
69.055813
11
31.485377
21
67.997481
0
LINE
8
Layer 1
10
31.485377
20
67.997481
11
31.485377
21
59.530825
0
LINE
8
Layer 1
10
31.485377
20
59.530825
11
31.050400
21
59.468567
0
LINE
8
Layer 1
10
31.050400
20
59.468567
11
30.082905
21
59.144319
0
LINE
8
Layer 1
10
30.082905
20
59.144319
11
29.557635
21
58.819507
0
LINE
8
Layer 1
10
29.557635
20
58.819507
11
29.089042
21
58.351866
0
LINE
8
Layer 1
10
29.089042
20
58.351866
11
28.740395
21
57.715621
0
LINE
8
Layer 1
10
28.740395
20
57.715621
11
28.574964
21
56.884995
0
LINE
8
Layer 1
10
28.574964
20
56.884995
11
28.310381
21
48.947505
0
LINE
8
Layer 1
10
28.310381
20
48.947505
11
11.906235
21
41.274598
0
LINE
8
Layer 1
10
11.906235
20
41.274598
11
11.641652
21
33.072525
0
LINE
8
Layer 1
10
11.641652
20
33.072525
11
34.131207
21
16.932962
0
LINE
8
Layer 1
10
34.131207
20
16.932962
11
110.860277
21
59.530825
0
LINE
8
Layer 1
10
110.860277
20
59.530825
11
110.860277
21
65.616234
0
LINE
8
Layer 1
10
110.860277
20
65.616234
11
91.545718
21
75.405805
0
LINE
8
Layer 1
10
91.545718
20
75.405805
11
91.450618
21
76.076708
0
LINE
8
Layer 1
10
91.450618
20
76.076708
11
91.037759
21
77.833611
0
LINE
8
Layer 1
10
91.037759
20
77.833611
11
90.115806
21
80.292804
0
LINE
8
Layer 1
10
90.115806
20
80.292804
11
89.404126
21
81.665850
0
LINE
8
Layer 1
10
89.404126
20
81.665850
11
88.493421
21
83.070577
0
LINE
8
Layer 1
10
88.493421
20
83.070577
11
87.359774
21
84.459022
0
LINE
8
Layer 1
10
87.359774
20
84.459022
11
85.979267
21
85.783222
0
LINE
8
Layer 1
10
85.979267
20
85.783222
11
84.327985
21
86.995211
0
LINE
8
Layer 1
10
84.327985
20
86.995211
11
82.382008
21
88.047028
0
LINE
8
Layer 1
10
82.382008
20
88.047028
11
80.117422
21
88.890707
0
LINE
8
Layer 1
10
80.117422
20
88.890707
11
77.510307
21
89.478286
0
LINE
8
Layer 1
10
77.510307
20
89.478286
11
74.536748
21
89.761801
0
LINE
8
Layer 1
10
74.536748
20
89.761801
11
71.172827
21
89.693287
0
LINE
8
Layer 1
10
71.172827
20
89.693287
11
82.020730
21
94.984947
0
LINE
8
Layer 1
10
82.020730
20
94.984947
11
81.710349
21
103.549465
0
LINE
8
Layer 1
10
81.710349
20
103.549465
11
56.161165
21
99.495293
0
LINE
8
Layer 1
10
56.161165
20
99.495293
11
56.161165
21
99.495293
 0 
ENDSEC
 0 
EOF