999
"DXF R12 Output" (www.mydxf.blogspot.com)
 0 
SECTION
 2 
HEADER
 9 
$ACADVER
 1 
AC1009
 9 
$EXTMIN
 10 
 0 
 20 
 0 
 9 
$EXTMAX
 10 
 8.5 
 20 
 11 
 0 
ENDSEC
 0 
SECTION
 2 
ENTITIES
0
LINE
8
Layer 1
10
54.620951
20
99.883334
11
55.696241
21
100.638670
0
LINE
8
Layer 1
10
55.696241
20
100.638670
11
56.965739
21
101.294323
0
LINE
8
Layer 1
10
56.965739
20
101.294323
11
58.656815
21
101.878841
0
LINE
8
Layer 1
10
58.656815
20
101.878841
11
60.719726
21
102.199879
0
LINE
8
Layer 1
10
60.719726
20
102.199879
11
63.104729
21
102.065093
0
LINE
8
Layer 1
10
63.104729
20
102.065093
11
64.402471
21
101.766658
0
LINE
8
Layer 1
10
64.402471
20
101.766658
11
65.762082
21
101.282138
0
LINE
8
Layer 1
10
65.762082
20
101.282138
11
67.177345
21
100.587490
0
LINE
8
Layer 1
10
67.177345
20
100.587490
11
68.642041
21
99.658671
0
LINE
8
Layer 1
10
68.642041
20
99.658671
11
69.143238
21
81.392076
0
LINE
8
Layer 1
10
69.143238
20
81.392076
11
72.322298
21
76.640591
0
LINE
8
Layer 1
10
72.322298
20
76.640591
11
75.312874
21
71.585496
0
LINE
8
Layer 1
10
75.312874
20
71.585496
11
78.098193
21
66.059569
0
LINE
8
Layer 1
10
78.098193
20
66.059569
11
80.661480
21
59.895586
0
LINE
8
Layer 1
10
80.661480
20
59.895586
11
82.985962
21
52.926324
0
LINE
8
Layer 1
10
82.985962
20
52.926324
11
85.054865
21
44.984561
0
LINE
8
Layer 1
10
85.054865
20
44.984561
11
86.851414
21
35.903073
0
LINE
8
Layer 1
10
86.851414
20
35.903073
11
88.358836
21
25.514638
0
LINE
8
Layer 1
10
88.358836
20
25.514638
11
85.983737
21
23.465117
0
LINE
8
Layer 1
10
85.983737
20
23.465117
11
83.237811
21
21.721595
0
LINE
8
Layer 1
10
83.237811
20
21.721595
11
80.175646
21
20.269565
0
LINE
8
Layer 1
10
80.175646
20
20.269565
11
76.851829
21
19.094523
0
LINE
8
Layer 1
10
76.851829
20
19.094523
11
73.320946
21
18.181962
0
LINE
8
Layer 1
10
73.320946
20
18.181962
11
69.637584
21
17.517378
0
LINE
8
Layer 1
10
69.637584
20
17.517378
11
65.856330
21
17.086264
0
LINE
8
Layer 1
10
65.856330
20
17.086264
11
62.031770
21
16.874114
0
LINE
8
Layer 1
10
62.031770
20
16.874114
11
58.218492
21
16.866425
0
LINE
8
Layer 1
10
58.218492
20
16.866425
11
54.471082
21
17.048689
0
LINE
8
Layer 1
10
54.471082
20
17.048689
11
50.844126
21
17.406401
0
LINE
8
Layer 1
10
50.844126
20
17.406401
11
47.392212
21
17.925055
0
LINE
8
Layer 1
10
47.392212
20
17.925055
11
44.169926
21
18.590146
0
LINE
8
Layer 1
10
44.169926
20
18.590146
11
41.231854
21
19.387169
0
LINE
8
Layer 1
10
41.231854
20
19.387169
11
38.632585
21
20.301617
0
LINE
8
Layer 1
10
38.632585
20
20.301617
11
36.426703
21
21.318986
0
LINE
8
Layer 1
10
36.426703
20
21.318986
11
36.233034
21
22.078979
0
LINE
8
Layer 1
10
36.233034
20
22.078979
11
36.120939
21
23.429865
0
LINE
8
Layer 1
10
36.120939
20
23.429865
11
36.215792
21
27.736191
0
LINE
8
Layer 1
10
36.215792
20
27.736191
11
36.859910
21
33.901713
0
LINE
8
Layer 1
10
36.859910
20
33.901713
11
38.201940
21
41.590181
0
LINE
8
Layer 1
10
38.201940
20
41.590181
11
39.181124
21
45.900441
0
LINE
8
Layer 1
10
39.181124
20
45.900441
11
40.390529
21
50.465344
0
LINE
8
Layer 1
10
40.390529
20
50.465344
11
41.848735
21
55.242859
0
LINE
8
Layer 1
10
41.848735
20
55.242859
11
43.574323
21
60.190953
0
LINE
8
Layer 1
10
43.574323
20
60.190953
11
45.585875
21
65.267596
0
LINE
8
Layer 1
10
45.585875
20
65.267596
11
47.901971
21
70.430757
0
LINE
8
Layer 1
10
47.901971
20
70.430757
11
50.541191
21
75.638404
0
LINE
8
Layer 1
10
50.541191
20
75.638404
11
53.522118
21
80.848505
0
LINE
8
Layer 1
10
53.522118
20
80.848505
11
54.620951
21
99.883334
0
LINE
8
Layer 1
10
54.620951
20
99.883334
11
54.620951
21
99.883334
0
LINE
8
Layer 1
10
0.793749
20
0.793399
11
118.268601
21
0.793399
0
LINE
8
Layer 1
10
118.268601
20
0.793399
11
118.268601
21
118.268251
0
LINE
8
Layer 1
10
118.268601
20
118.268251
11
0.793749
21
118.268251
0
LINE
8
Layer 1
10
0.793749
20
118.268251
11
0.793749
21
0.793399
 0 
ENDSEC
 0 
EOF